# xmcd
#
# Track frame offsets:
#	150
#	16200
#	29925
#	49949
#	63224
#	81148
#	95734
#	108259
#	123634
#	139459
#	151684
#	161359
#	171934
#	184684
#	201184
#	217834
#
# Disc length: 3186 seconds
#
# Revision: 0
# Processed by: cddbd v1.5.2PL0 Copyright (c) Steve Scherf et al.
# Submitted via: EZCDAudioConverter 1.3.4.1
#
DISCID=dc0c7010
DTITLE=Enrique Oxandabarat - Plaza Mayor - Covers
DYEAR=1900
DGENRE=Accoustic
TTITLE0=Blowin' in the wind
TTITLE1=If I had a hammer
TTITLE2=California blue
TTITLE3=Bye, bye blackbird
TTITLE4=Sittin' on the dock of the bay
TTITLE5=Runaway
TTITLE6=What a wonderful world
TTITLE7=Everybody's talkin'
TTITLE8=Stand by me
TTITLE9=Johnny be good
TTITLE10=Something stupid
TTITLE11=When you're smiling
TTITLE12=Cotton fields
TTITLE13=Imagine
TTITLE14=Mediterraneo
TTITLE15=Paraules d'amor
EXTD=
EXTT0=
EXTT1=
EXTT2=
EXTT3=
EXTT4=
EXTT5=
EXTT6=
EXTT7=
EXTT8=
EXTT9=
EXTT10=
EXTT11=
EXTT12=
EXTT13=
EXTT14=
EXTT15=
PLAYORDER=
